<?xml version="1.0" encoding="UTF-8" standalone="no"?>
<!-- Created with Inkscape (http://www.inkscape.org/) -->

<svg
   xmlns:dc="http://purl.org/dc/elements/1.1/"
   xmlns:cc="http://creativecommons.org/ns#"
   xmlns:rdf="http://www.w3.org/1999/02/22-rdf-syntax-ns#"
   xmlns:svg="http://www.w3.org/2000/svg"
   xmlns="http://www.w3.org/2000/svg"
   xmlns:sodipodi="http://sodipodi.sourceforge.net/DTD/sodipodi-0.dtd"
   xmlns:inkscape="http://www.inkscape.org/namespaces/inkscape"
   id="svg2"
   version="1.1"
   inkscape:version="0.91 r13725"
   xml:space="preserve"
   width="600"
   height="600"
   viewBox="0 0 600 600"
   sodipodi:docname="tomato.svg"><metadata
     id="metadata8"><rdf:RDF><cc:Work
         rdf:about=""><dc:format>image/svg+xml</dc:format><dc:type
           rdf:resource="http://purl.org/dc/dcmitype/StillImage" /><dc:title></dc:title></cc:Work></rdf:RDF></metadata><defs
     id="defs6"><clipPath
       clipPathUnits="userSpaceOnUse"
       id="clipPath16"><path
         d="M 0,800 800,800 800,0 0,0 0,800 Z"
         id="path18"
         inkscape:connector-curvature="0" /></clipPath><clipPath
       clipPathUnits="userSpaceOnUse"
       id="clipPath152"><path
         d="m 189.006,669.262 421.992,0 0,-452.607 -421.992,0 0,452.607 z"
         id="path154"
         inkscape:connector-curvature="0" /></clipPath><clipPath
       clipPathUnits="userSpaceOnUse"
       id="clipPath304"><path
         d="m 390.18,163.738 c -96.018,-0.014 -176.284,-5.525 -196.351,-12.894 l 0,0 c -3.16,-1.16 -4.827,-2.367 -4.827,-3.606 l 0,0 c 0,-1.238 1.667,-2.445 4.827,-3.605 l 0,0 c 20.067,-7.369 100.333,-12.879 196.352,-12.893 l 0,0 0.357,0 c 96.204,0 176.664,5.518 196.725,12.899 l 0,0 c 3.151,1.157 4.811,2.363 4.811,3.599 l 0,0 c 0,1.237 -1.66,2.442 -4.811,3.6 l 0,0 c -20.061,7.381 -100.521,12.9 -196.725,12.9 l 0,0 -0.358,0 z"
         id="path306"
         inkscape:connector-curvature="0" /></clipPath></defs><sodipodi:namedview
     pagecolor="#ffffff"
     bordercolor="#666666"
     borderopacity="1"
     objecttolerance="10"
     gridtolerance="10"
     guidetolerance="10"
     inkscape:pageopacity="0"
     inkscape:pageshadow="2"
     inkscape:window-width="1376"
     inkscape:window-height="807"
     id="namedview4"
     showgrid="false"
     inkscape:zoom="0.472"
     inkscape:cx="-7.3223344"
     inkscape:cy="336.91652"
     inkscape:window-x="0"
     inkscape:window-y="23"
     inkscape:window-maximized="0"
     inkscape:current-layer="g10" /><g
     id="g10"
     inkscape:groupmode="layer"
     inkscape:label="03"
     transform="matrix(1.25,0,0,-1.25,0,600)"><g
       id="g4829"
       transform="translate(-154.91735,-18.21274)"><g
         transform="translate(-5.0847458,-184.74576)"
         id="g148"><g
           id="g150" /><g
           id="g156"><g
             id="g158"
             clip-path="url(#clipPath152)"><g
               id="g160"
               transform="translate(592.0781,501.1533)"><path
                 inkscape:connector-curvature="0"
                 id="path162"
                 style="fill:#ef3e2f;fill-opacity:1;fill-rule:nonzero;stroke:none"
                 d="M 0,0 18.92,-93.22 -37.299,-56.037 0,0 Z" /></g><g
               id="g164"
               transform="translate(610.998,407.9336)"><path
                 inkscape:connector-curvature="0"
                 id="path166"
                 style="fill:#eb2e00;fill-opacity:1;fill-rule:nonzero;stroke:none"
                 d="m 0,0 -24.479,-86.755 -40.639,25.86 8.899,98.078 L 0,0 Z" /></g><g
               id="g168"
               transform="translate(592.0781,501.1533)"><path
                 inkscape:connector-curvature="0"
                 id="path170"
                 style="fill:#f8441c;fill-opacity:1;fill-rule:nonzero;stroke:none"
                 d="M 0,0 -37.299,-56.037 -173.137,-21.021 -62.358,37.706 0,0 Z" /></g><g
               id="g172"
               transform="translate(589.8584,596.5215)"><path
                 inkscape:connector-curvature="0"
                 id="path174"
                 style="fill:#84b34e;fill-opacity:1;fill-rule:nonzero;stroke:none"
                 d="m 0,0 -53.459,10.22 32.3,8.091 L 0,0 Z" /></g><g
               id="g176"
               transform="translate(586.5186,321.1787)"><path
                 inkscape:connector-curvature="0"
                 id="path178"
                 style="fill:#d50601;fill-opacity:1;fill-rule:nonzero;stroke:none"
                 d="m 0,0 -37.859,-52.262 -2.78,-2.091 0,80.213 L 0,0 Z" /></g><g
               id="g180"
               transform="translate(568.6992,614.8325)"><path
                 inkscape:connector-curvature="0"
                 id="path182"
                 style="fill:#62c700;fill-opacity:1;fill-rule:nonzero;stroke:none"
                 d="M 0,0 -32.3,-8.091 -55.659,5.632 0,0 Z" /></g><g
               id="g184"
               transform="translate(554.7793,445.1167)"><path
                 inkscape:connector-curvature="0"
                 id="path186"
                 style="fill:#f6351d;fill-opacity:1;fill-rule:nonzero;stroke:none"
                 d="M 0,0 -8.899,-98.078 -135.838,35.016 0,0 Z" /></g><g
               id="g188"
               transform="translate(545.8799,347.0391)"><path
                 inkscape:connector-curvature="0"
                 id="path190"
                 style="fill:#df1809;fill-opacity:1;fill-rule:nonzero;stroke:none"
                 d="m 0,0 0,-80.213 -49.56,-37.241 -2.299,-0.193 -13.84,69.702 L 0,0 Z" /></g><g
               id="g192"
               transform="translate(418.9414,480.1323)"><path
                 inkscape:connector-curvature="0"
                 id="path194"
                 style="fill:#f13215;fill-opacity:1;fill-rule:nonzero;stroke:none"
                 d="M 0,0 126.938,-133.093 61.239,-181.039 -84.618,-166.502 0,0 Z" /></g><g
               id="g196"
               transform="translate(536.3994,606.7412)"><path
                 inkscape:connector-curvature="0"
                 id="path198"
                 style="fill:#699330;fill-opacity:1;fill-rule:nonzero;stroke:none"
                 d="m 0,0 -64.398,-36.39 -0.68,0.329 41.699,49.785 0.02,0 L 0,0 Z" /></g><g
               id="g200"
               transform="translate(529.7197,538.8589)"><path
                 inkscape:connector-curvature="0"
                 id="path202"
                 style="fill:#ff4c10;fill-opacity:1;fill-rule:nonzero;stroke:none"
                 d="m 0,0 -110.778,-58.727 -27.599,36.042 32.599,35.615 L 0,0 Z" /></g><g
               id="g204"
               transform="translate(529.7197,538.8589)"><path
                 inkscape:connector-curvature="0"
                 id="path206"
                 style="fill:#ff7647;fill-opacity:1;fill-rule:nonzero;stroke:none"
                 d="m 0,0 -105.778,12.93 15.599,35.035 6.821,-3.465 24.96,-12.678 -1.161,-1.374 1.84,1.045 L -22.26,13.472 0,0 Z" /></g><g
               id="g208"
               transform="translate(513.0205,620.4844)"><path
                 inkscape:connector-curvature="0"
                 id="path210"
                 style="fill:#96c23d;fill-opacity:1;fill-rule:nonzero;stroke:none"
                 d="m 0,0 0,-0.02 -41.699,-49.784 -24.96,12.679 20.46,29.324 L -2.78,0.271 0,0 Z" /></g><g
               id="g212"
               transform="translate(480.1807,299.0937)"><path
                 inkscape:connector-curvature="0"
                 id="path214"
                 style="fill:#df1306;fill-opacity:1;fill-rule:nonzero;stroke:none"
                 d="M 0,0 13.84,-69.702 -134.177,-82.438 -145.857,14.536 0,0 Z" /></g><g
               id="g216"
               transform="translate(446.3613,620.7554)"><path
                 inkscape:connector-curvature="0"
                 id="path218"
                 style="fill:#7dae50;fill-opacity:1;fill-rule:nonzero;stroke:none"
                 d="m 0,0 0,-37.396 -6.82,3.464 -38.579,0 9.48,26.964 L 0,0 Z" /></g><g
               id="g220"
               transform="translate(427.8418,663.3198)"><path
                 inkscape:connector-curvature="0"
                 id="path222"
                 style="fill:#94dc5f;fill-opacity:1;fill-rule:nonzero;stroke:none"
                 d="m 0,0 18.52,-42.564 -35.919,-6.969 2.679,7.665 L 0,0 Z" /></g><g
               id="g224"
               transform="translate(400.9624,586.8237)"><path
                 inkscape:connector-curvature="0"
                 id="path226"
                 style="fill:#418600;fill-opacity:1;fill-rule:nonzero;stroke:none"
                 d="M 0,0 38.579,0 22.979,-35.035 -26.56,0 0,0 Z" /></g><g
               id="g228"
               transform="translate(423.9414,551.7891)"><path
                 inkscape:connector-curvature="0"
                 id="path230"
                 style="fill:#948524;fill-opacity:1;fill-rule:nonzero;stroke:none"
                 d="m 0,0 -32.599,-35.615 -44.619,58.281 3.74,1.045 23.939,11.324 L 0,0 Z" /></g><g
               id="g232"
               transform="translate(391.3423,516.1738)"><path
                 inkscape:connector-curvature="0"
                 id="path234"
                 style="fill:#f8441c;fill-opacity:1;fill-rule:nonzero;stroke:none"
                 d="M 0,0 27.599,-36.042 -55.359,-41.171 -1.9,-2.091 0,0 Z" /></g><g
               id="g236"
               transform="translate(418.9414,480.1323)"><path
                 inkscape:connector-curvature="0"
                 id="path238"
                 style="fill:#ff4c11;fill-opacity:1;fill-rule:nonzero;stroke:none"
                 d="m 0,0 -84.618,-166.502 -104.118,42.564 11.14,105.085 94.638,13.724 L 0,0 Z" /></g><g
               id="g240"
               transform="translate(413.1221,621.4521)"><path
                 inkscape:connector-curvature="0"
                 id="path242"
                 style="fill:#5d8d21;fill-opacity:1;fill-rule:nonzero;stroke:none"
                 d="m 0,0 -2.68,-7.665 -9.48,-26.963 -26.559,0 2.4,12.194 4.279,21.737 L 0,0 Z" /></g><g
               id="g244"
               transform="translate(374.4028,669.2622)"><path
                 inkscape:connector-curvature="0"
                 id="path246"
                 style="fill:#7bc343;fill-opacity:1;fill-rule:nonzero;stroke:none"
                 d="M 0,0 38.719,-47.81 -5.02,-10.782 0,0 Z" /></g><g
               id="g248"
               transform="translate(413.1221,621.4521)"><path
                 inkscape:connector-curvature="0"
                 id="path250"
                 style="fill:#72b03b;fill-opacity:1;fill-rule:nonzero;stroke:none"
                 d="M 0,0 -32.04,-0.697 -43.739,37.028 0,0 Z" /></g><g
               id="g252"
               transform="translate(346.7231,574.4551)"><path
                 inkscape:connector-curvature="0"
                 id="path254"
                 style="fill:#ff5f10;fill-opacity:1;fill-rule:nonzero;stroke:none"
                 d="m 0,0 44.619,-58.281 -1.9,-2.091 -53.459,-39.08 -66.398,76.786 2.38,1.626 L -7.14,-2.013 0,0 Z" /></g><g
               id="g256"
               transform="translate(359.9829,643.4023)"><path
                 inkscape:connector-curvature="0"
                 id="path258"
                 style="fill:#79b446;fill-opacity:1;fill-rule:nonzero;stroke:none"
                 d="m 0,0 16.82,-44.384 -2.4,-12.195 -23.94,-11.323 -3.74,-1.045 -7.139,-2.013 L 0,0 Z" /></g><g
               id="g260"
               transform="translate(374.4028,669.2622)"><path
                 inkscape:connector-curvature="0"
                 id="path262"
                 style="fill:#7dca4a;fill-opacity:1;fill-rule:nonzero;stroke:none"
                 d="M 0,0 -5.02,-10.782 -40.079,0 0,0 Z" /></g><g
               id="g264"
               transform="translate(359.9829,643.4023)"><path
                 inkscape:connector-curvature="0"
                 id="path266"
                 style="fill:#689929;fill-opacity:1;fill-rule:nonzero;stroke:none"
                 d="M 0,0 -20.399,-70.96 -49.999,-7.259 0,0 Z" /></g><g
               id="g268"
               transform="translate(359.9829,643.4023)"><path
                 inkscape:connector-curvature="0"
                 id="path270"
                 style="fill:#85d550;fill-opacity:1;fill-rule:nonzero;stroke:none"
                 d="m 0,0 -49.999,-7.259 -60.999,-28.55 43.499,55.726 L 0,0 Z" /></g><g
               id="g272"
               transform="translate(334.3237,313.6299)"><path
                 inkscape:connector-curvature="0"
                 id="path274"
                 style="fill:#ff3613;fill-opacity:1;fill-rule:nonzero;stroke:none"
                 d="m 0,0 11.68,-96.975 -67.919,20.15 -1.56,1.123 L 0,0 Z" /></g><g
               id="g276"
               transform="translate(269.585,551.7891)"><path
                 inkscape:connector-curvature="0"
                 id="path278"
                 style="fill:#ff6115;fill-opacity:1;fill-rule:nonzero;stroke:none"
                 d="M 0,0 66.398,-76.786 -28.24,-90.51 -0.28,-0.193 0,0 Z" /></g><g
               id="g280"
               transform="translate(334.3237,313.6299)"><path
                 inkscape:connector-curvature="0"
                 id="path282"
                 style="fill:#ff3613;fill-opacity:1;fill-rule:nonzero;stroke:none"
                 d="M 0,0 -57.799,-75.702 -120.598,-30.699 0,0 Z" /></g><g
               id="g284"
               transform="translate(334.3237,313.6299)"><path
                 inkscape:connector-curvature="0"
                 id="path286"
                 style="fill:#ff4c10;fill-opacity:1;fill-rule:nonzero;stroke:none"
                 d="M 0,0 -120.598,-30.699 -145.317,36.1 -104.118,42.564 0,0 Z" /></g><g
               id="g288"
               transform="translate(269.3047,551.5957)"><path
                 inkscape:connector-curvature="0"
                 id="path290"
                 style="fill:#ff945a;fill-opacity:1;fill-rule:nonzero;stroke:none"
                 d="m 0,0 -27.959,-90.316 -25.4,53.132 0.34,1.278 L 0,0 Z" /></g><g
               id="g292"
               transform="translate(215.9458,514.4121)"><path
                 inkscape:connector-curvature="0"
                 id="path294"
                 style="fill:#ff7931;fill-opacity:1;fill-rule:nonzero;stroke:none"
                 d="M 0,0 25.399,-53.133 -21.76,-78.954 0,0 Z" /></g><g
               id="g296"
               transform="translate(241.3452,461.2793)"><path
                 inkscape:connector-curvature="0"
                 id="path298"
                 style="fill:#ff6115;fill-opacity:1;fill-rule:nonzero;stroke:none"
                 d="m 0,0 -11.14,-105.085 -41.199,-6.465 5.02,85.148 0.16,0.581 L 0,0 Z" /></g></g></g></g></g></g></svg>